<?xml version="1.0" encoding="UTF-8" standalone="no"?>
<svg
   xmlns="http://www.w3.org/2000/svg"
   height="64"
   width="64"
   viewBox="4 7 400 400"
   version="1.1">

  <polygon
     points="19.0174,20.5132 19.0174,103.576 106.262,103.576 106.262,20.5132"
     fill="#16316f"
     stroke-width="0.105684"
     transform="matrix(4.584811,0,0,4.8156335,-83.191186,-91.784052)" />

  <g transform="matrix(16.242839,0,0,16.242839,-41.85752,-89.527888)">
    <path
       d="m 13.358364,10.255915 v 3.03 c -0.16,0.058 -0.32,0.123 -0.472,0.195 l -2.14,-2.14 -2.5280004,2.529 2.1400004,2.139 a 5.107,5.107 0 0 0 -0.194,0.471 H 7.1363636 v 3.555 h 3.0280004 c 0.057,0.159 0.123,0.32 0.195,0.472 l -2.1400004,2.139 2.5280004,2.527 2.14,-2.139 c 0.152,0.072 0.31,0.138 0.471,0.195 v 3.027 h 3.556 v -3.027 c 0.16,-0.058 0.32,-0.123 0.472,-0.195 l 2.14,2.139 2.527,-2.527 -2.14,-2.139 c 0.071,-0.151 0.139,-0.313 0.195,-0.472 h 3.028 v -3.555 h -3.028 a 5.524,5.524 0 0 0 -0.195,-0.471 l 2.14,-2.139 -2.528,-2.529 -2.14,2.14 a 4.955,4.955 0 0 0 -0.471,-0.195 v -3.03 z m 1.778,5.864 c 1.18,0 2.14,0.958 2.14,2.138 0,1.18 -0.96,2.14 -2.14,2.14 a 2.14,2.14 0 0 1 0,-4.277 z"
       fill="none"
       stroke="#ffffff"
       stroke-width="0.738787"
       stroke-linecap="round"
       stroke-linejoin="round" />
  </g>
</svg>
