<?xml version="1.0" encoding="UTF-8" standalone="no"?>
<svg
   version="1.2"
   width="19mm"
   height="19mm"
   viewBox="0 0 1900 1900"
   preserveAspectRatio="xMidYMid"
   fill-rule="evenodd"
   stroke-width="28.222"
   stroke-linejoin="round"
   xml:space="preserve"
   id="svg29"
   sodipodi:docname="emi_expressions.svg"
   inkscape:version="1.3.1 (9b9bdc1480, 2023-11-25, custom)"
   xmlns:inkscape="http://www.inkscape.org/namespaces/inkscape"
   xmlns:sodipodi="http://sodipodi.sourceforge.net/DTD/sodipodi-0.dtd"
   xmlns="http://www.w3.org/2000/svg"
   xmlns:svg="http://www.w3.org/2000/svg"
   xmlns:ooo="http://xml.openoffice.org/svg/export"><sodipodi:namedview
   id="namedview29"
   pagecolor="#ffffff"
   bordercolor="#000000"
   borderopacity="0.25"
   inkscape:showpageshadow="2"
   inkscape:pageopacity="0.0"
   inkscape:pagecheckerboard="0"
   inkscape:deskcolor="#d1d1d1"
   inkscape:document-units="mm"
   inkscape:zoom="7.9266515"
   inkscape:cx="23.969768"
   inkscape:cy="40.180901"
   inkscape:window-width="1854"
   inkscape:window-height="1011"
   inkscape:window-x="66"
   inkscape:window-y="32"
   inkscape:window-maximized="1"
   inkscape:current-layer="svg29" />
 <defs
   class="ClipPathGroup"
   id="defs2"><rect
   x="7.8850062"
   y="11.985297"
   width="40.549077"
   height="45.389588"
   id="rect29" />
  <clipPath
   id="presentation_clip_path"
   clipPathUnits="userSpaceOnUse">
   <rect
   x="0"
   y="0"
   width="1900"
   height="1900"
   id="rect1" />
  </clipPath>
  <clipPath
   id="presentation_clip_path_shrink"
   clipPathUnits="userSpaceOnUse">
   <rect
   x="1"
   y="1"
   width="1897"
   height="1897"
   id="rect2" />
  </clipPath>
 
   
   
   
   
   
   
   
   
   
   
   
   
  </defs>
 <defs
   class="TextShapeIndex"
   id="defs3">
  <g
   ooo:slide="id1"
   ooo:id-list="id3 id4 id5 id6 id7 id8 id9 id10 id11 id12 id13 id14"
   id="g2" />
 </defs>
 <defs
   class="EmbeddedBulletChars"
   id="defs12">
  <g
   id="bullet-char-template-57356"
   transform="scale(0.00048828125,-0.00048828125)">
   <path
   d="M 580,1141 L 1163,571 580,0 -4,571 580,1141 Z"
   id="path3" />
  </g>
  <g
   id="bullet-char-template-57354"
   transform="scale(0.00048828125,-0.00048828125)">
   <path
   d="M 8,1128 L 1137,1128 1137,0 8,0 8,1128 Z"
   id="path4" />
  </g>
  <g
   id="bullet-char-template-10146"
   transform="scale(0.00048828125,-0.00048828125)">
   <path
   d="M 174,0 L 602,739 174,1481 1456,739 174,0 Z M 1358,739 L 309,1346 659,739 1358,739 Z"
   id="path5" />
  </g>
  <g
   id="bullet-char-template-10132"
   transform="scale(0.00048828125,-0.00048828125)">
   <path
   d="M 2015,739 L 1276,0 717,0 1260,543 174,543 174,936 1260,936 717,1481 1274,1481 2015,739 Z"
   id="path6" />
  </g>
  <g
   id="bullet-char-template-10007"
   transform="scale(0.00048828125,-0.00048828125)">
   <path
   d="M 0,-2 C -7,14 -16,27 -25,37 L 356,567 C 262,823 215,952 215,954 215,979 228,992 255,992 264,992 276,990 289,987 310,991 331,999 354,1012 L 381,999 492,748 772,1049 836,1024 860,1049 C 881,1039 901,1025 922,1006 886,937 835,863 770,784 769,783 710,716 594,584 L 774,223 C 774,196 753,168 711,139 L 727,119 C 717,90 699,76 672,76 641,76 570,178 457,381 L 164,-76 C 142,-110 111,-127 72,-127 30,-127 9,-110 8,-76 1,-67 -2,-52 -2,-32 -2,-23 -1,-13 0,-2 Z"
   id="path7" />
  </g>
  <g
   id="bullet-char-template-10004"
   transform="scale(0.00048828125,-0.00048828125)">
   <path
   d="M 285,-33 C 182,-33 111,30 74,156 52,228 41,333 41,471 41,549 55,616 82,672 116,743 169,778 240,778 293,778 328,747 346,684 L 369,508 C 377,444 397,411 428,410 L 1163,1116 C 1174,1127 1196,1133 1229,1133 1271,1133 1292,1118 1292,1087 L 1292,965 C 1292,929 1282,901 1262,881 L 442,47 C 390,-6 338,-33 285,-33 Z"
   id="path8" />
  </g>
  <g
   id="bullet-char-template-9679"
   transform="scale(0.00048828125,-0.00048828125)">
   <path
   d="M 813,0 C 632,0 489,54 383,161 276,268 223,411 223,592 223,773 276,916 383,1023 489,1130 632,1184 813,1184 992,1184 1136,1130 1245,1023 1353,916 1407,772 1407,592 1407,412 1353,268 1245,161 1136,54 992,0 813,0 Z"
   id="path9" />
  </g>
  <g
   id="bullet-char-template-8226"
   transform="scale(0.00048828125,-0.00048828125)">
   <path
   d="M 346,457 C 273,457 209,483 155,535 101,586 74,649 74,723 74,796 101,859 155,911 209,963 273,989 346,989 419,989 480,963 531,910 582,859 608,796 608,723 608,648 583,586 532,535 482,483 420,457 346,457 Z"
   id="path10" />
  </g>
  <g
   id="bullet-char-template-8211"
   transform="scale(0.00048828125,-0.00048828125)">
   <path
   d="M -4,459 L 1135,459 1135,606 -4,606 -4,459 Z"
   id="path11" />
  </g>
  <g
   id="bullet-char-template-61548"
   transform="scale(0.00048828125,-0.00048828125)">
   <path
   d="M 173,740 C 173,903 231,1043 346,1159 462,1274 601,1332 765,1332 928,1332 1067,1274 1183,1159 1299,1043 1357,903 1357,740 1357,577 1299,437 1183,322 1067,206 928,148 765,148 601,148 462,206 346,322 231,437 173,577 173,740 Z"
   id="path12" />
  </g>
 </defs>
 <defs
   class="TextEmbeddedBitmaps"
   id="defs13" />
 <g
   id="g158"
   transform="translate(27.899797,44.378653)"><polygon
     id="_67081640"
     class="fil0"
     points="106.262,20.5132 19.0174,20.5132 19.0174,103.576 106.262,103.576 "
     style="clip-rule:evenodd;fill:#16316f;fill-rule:nonzero;image-rendering:optimizeQuality;shape-rendering:geometricPrecision;text-rendering:geometricPrecision"
     transform="matrix(13.138763,0,0,13.138763,97.376805,223.31322)" /><text
     xml:space="preserve"
     style="font-style:normal;font-variant:normal;font-weight:normal;font-stretch:normal;font-size:1631.92px;font-family:'Standard Symbols PS';-inkscape-font-specification:'Standard Symbols PS';fill:#ffffff;stroke-width:719.626"
     x="438.34442"
     y="1587.9294"
     id="text157"><tspan
       sodipodi:role="line"
       id="tspan157"
       style="font-style:normal;font-variant:normal;font-weight:normal;font-stretch:normal;font-size:1631.92px;font-family:'Standard Symbols PS';-inkscape-font-specification:'Standard Symbols PS';stroke-width:719.626"
       x="438.34442"
       y="1587.9294">S</tspan></text><path
     id="_28970824"
     class="fil1"
     d="M 524.11857,917.0018 C 781.7119,822.55236 959.45966,578.69048 906.20694,476.51295 816.91052,494.54196 744.79855,543.49305 664.08187,576.12461 693.26044,468.79393 693.26044,379.49777 682.96622,292.76748 597.10164,356.29603 465.73779,410.39896 422.80557,601.87265 349.80266,515.16325 263.93822,436.16263 97.376805,443.87639 135.14155,551.20708 250.20558,783.90232 416.78802,817.40486 L 433.1011,783.90232 C 315.47488,727.23878 228.73947,581.27764 164.34114,484.24656 c 158.84764,43.77836 229.26484,172.57502 262.74635,188.89336 36.93044,-15.44724 62.68241,-139.94753 91.87819,-168.29704 30.05098,-28.3298 45.49822,-71.26202 119.3474,-130.51272 1.72118,135.68007 -42.06112,206.94734 -62.67716,309.97627 l 26.61388,15.44724 C 652.9155,627.64157 761.1119,601.87238 840.95879,553.79253 838.37702,692.0399 623.71591,812.25302 492.35193,898.96754 l 31.7669,18.03426 z"
     style="clip-rule:evenodd;fill:#1da838;fill-rule:evenodd;stroke-width:370.802;image-rendering:optimizeQuality;shape-rendering:geometricPrecision;text-rendering:geometricPrecision" /><path
     id="_66965912"
     class="fil2"
     d="m 1358.723,1009.7352 c 89.2964,-100.46306 162.2795,-170.01297 310.8264,-214.66112 -84.9988,2.58571 -54.1028,-145.11106 -120.2172,-182.02967 -85.8646,-30.04573 -117.6315,39.50037 -164.8455,115.0497 -35.2132,54.09755 -108.1965,93.59806 -145.9809,24.04788 12.8865,-76.41504 43.8034,-141.67922 37.7845,-229.25959 C 1259.9969,347.99233 1029.7296,241.59988 886.28319,223.31335 h -0.75811 l -28.25754,36.8227 c 209.50936,72.13181 308.26036,126.21503 368.35706,262.74635 -3.4319,87.5805 -25.7494,157.12647 -44.6495,232.69012 6.8847,36.06985 41.2176,66.11951 72.999,69.55136 54.0831,24.04788 89.3017,-3.43185 114.1996,-15.44724 70.3962,-51.51709 82.4326,-151.13388 139.9423,-151.13388 47.2352,33.50253 43.8033,87.5805 66.134,118.49601 -101.3329,42.0874 -174.3107,117.63147 -243.8607,193.19631 l 28.3337,39.50042 z"
     style="clip-rule:evenodd;fill:#9e441d;fill-rule:evenodd;stroke-width:370.802;image-rendering:optimizeQuality;shape-rendering:geometricPrecision;text-rendering:geometricPrecision" /><path
     id="_67127496"
     class="fil5"
     d="m 1708.1891,1028.6248 c -67.8301,54.949 -132.2285,91.8835 -228.3937,113.3496 -161.4294,-12.0312 -164.0112,-150.26283 -283.3571,-138.2474 -84.15,-2.5818 -241.28027,159.7135 -290.22611,138.2474 -73.83327,39.5004 -189.76446,-169.16294 -261.03043,-159.71354 -57.5307,-27.48498 -179.44397,64.39834 -254.15754,163.14544 l 29.19564,30.0496 c 57.53464,-64.3983 145.11501,-146.831 189.76316,-144.244 87.58049,-21.4661 141.68447,159.6926 292.79207,171.729 154.56571,-33.5025 219.81411,-150.2628 297.09501,-146.831 73.8477,-18.9001 125.365,134.7946 279.9253,138.2317 125.365,-24.9032 189.7632,-85.8646 267.0283,-141.6635 l -38.6346,-24.0532 z"
     style="clip-rule:evenodd;fill:#0093dd;fill-rule:evenodd;stroke-width:370.802;image-rendering:optimizeQuality;shape-rendering:geometricPrecision;text-rendering:geometricPrecision" /></g><g
   id="g13">
  <g
   id="id2"
   class="Master_Slide">
   <g
   id="bg-id2"
   class="Background" />
   <g
   id="bo-id2"
   class="BackgroundObjects" />
  </g>
 </g>
 
<text
   xml:space="preserve"
   transform="scale(26.458335)"
   id="text29"
   style="fill:#000000;white-space:pre;shape-inside:url(#rect29)" /><text
   xml:space="preserve"
   style="font-style:normal;font-variant:normal;font-weight:normal;font-stretch:normal;font-size:1128.89px;font-family:'Standard Symbols PS';-inkscape-font-specification:'Standard Symbols PS';fill:#000000;stroke-width:746.707"
   x="2037.3441"
   y="1276.5707"
   id="text31"><tspan
     sodipodi:role="line"
     id="tspan31"
     style="stroke-width:746.707"
     x="2037.3441"
     y="1276.5707" /></text><text
   xml:space="preserve"
   style="font-style:normal;font-variant:normal;font-weight:normal;font-stretch:normal;font-size:1270.00006587px;font-family:'Standard Symbols PS';-inkscape-font-specification:'Standard Symbols PS';fill:#000000;stroke-width:746.707"
   x="462.98892"
   y="1475.9968"
   id="text32"><tspan
     sodipodi:role="line"
     style="fill:#ffffff;stroke-width:746.707;font-size:1270.00006587px"
     x="462.98892"
     y="1475.9968"
     id="tspan33" /></text><text
   xml:space="preserve"
   style="font-style:normal;font-variant:normal;font-weight:normal;font-stretch:normal;font-size:423.333px;font-family:cmmi10;-inkscape-font-specification:cmmi10;fill:#ffffff;stroke-width:746.707"
   x="792.93591"
   y="927.00854"
   id="text156"><tspan
     sodipodi:role="line"
     id="tspan156"
     style="font-style:normal;font-variant:normal;font-weight:normal;font-stretch:normal;font-family:cmmi10;-inkscape-font-specification:cmmi10;stroke-width:746.707"
     x="792.93591"
     y="927.00854" /></text><text
   xml:space="preserve"
   style="font-style:normal;font-variant:normal;font-weight:normal;font-stretch:normal;font-size:211.667px;font-family:'Standard Symbols PS';-inkscape-font-specification:'Standard Symbols PS';fill:#ffffff;stroke-width:746.707"
   x="-11.591047"
   y="-742.92755"
   id="text158"><tspan
     sodipodi:role="line"
     id="tspan158"
     style="font-size:211.667px;stroke-width:746.707"
     x="-11.591047"
     y="-742.92755" /></text></svg>
